<?xml version="1.0" encoding="utf-8"?>
<!-- Generator: Adobe Illustrator 23.0.1, SVG Export Plug-In . SVG Version: 6.00 Build 0)  -->
<svg version="1.1" id="Layer_1" xmlns="http://www.w3.org/2000/svg" xmlns:xlink="http://www.w3.org/1999/xlink" x="0px" y="0px"
	 viewBox="0 0 900 900" style="enable-background:new 0 0 900 900;" xml:space="preserve">
<style type="text/css">
	.st0{fill:#D2091B;}
</style>
<title>LOGO_ICON_WHITE_BACKGROUND</title>
<g id="Layer_6">
	<path class="st0" d="M405.1,667.3c142.1-2.8,219.7-87.3,236.5-173.7c3.1-15.1-6.6-29.9-21.8-33c-1.8-0.4-3.7-0.6-5.5-0.6H505.2
		c-28.7,0-53.8-21.3-56.3-49.9c-2.6-30.1,19.6-56.6,49.7-59.2c1.6-0.1,3.2-0.2,4.8-0.2h288.7c22.9,0,41,18.9,42.5,41.7
		c1.9-108.8-41.1-217.9-130.6-296.5C559.8-30.9,341.7-32,196.2,93.1C140.5,140.8,99.7,203.6,78.7,274
		C63.6,324.6,61,378.5,73.9,429.8C106.5,559.1,219.6,670.9,405.1,667.3z"/>
	<path class="st0" d="M460.2,773.9h-21.8c-85,0-144.8-23.1-203.7-53l155.1,155.1c32.4,32.4,85,32.4,117.4,0c0,0,0,0,0,0l155.3-155.3
		C617.4,748.1,529.2,771.4,460.2,773.9z"/>
</g>
</svg>
