<?xml version="1.0" encoding="utf-8"?>
<!-- Generator: Adobe Illustrator 23.0.1, SVG Export Plug-In . SVG Version: 6.00 Build 0)  -->
<svg version="1.1" id="Layer_1" xmlns="http://www.w3.org/2000/svg" xmlns:xlink="http://www.w3.org/1999/xlink" x="0px" y="0px"
	 viewBox="0 0 300 147" style="enable-background:new 0 0 300 147;" xml:space="preserve">
<style type="text/css">
	.st0{fill:#DBDBDB;}
	.st1{opacity:0.99;fill:#5C5C5C;}
	.st2{fill:#7C7C7C;}
	.st3{fill:#ADADAD;}
	.st4{opacity:0;fill:#7C7C7C;}
	.st5{opacity:0;}
</style>
<path class="st0" d="M12.4,33.3c7.5,0,262.4-1.3,262.4-1.3s10.1,0,13.1,1.3s4.3,2.9,5.2,7.2c1,4.3,7.3,33.4,6.9,50.1
	c-0.3,13.1-0.3,12.1-0.7,13.7c-0.3,1.6-0.3,2.6-4.9,2.6c-4.6,0-39.9,0-39.9,0s2-20-15.4-20s-15.4,20.3-15.4,20.3H92.9
	c0,0,2-20-15-20s-15,20.3-15,20.3H36.6l-24.2-2H2.9c0,0-2.9,0.3-2.9-4.6c0-5.6,0-35,0-35s0-5.2,1-11.8s2.3-14.4,2.6-15
	C3.9,38.5,4.9,33.3,12.4,33.3z"/>
<path class="st1" d="M9.5,36.3c0,0,272.5-1.3,273.5-1.3c1,0,6.2-0.3,7.5,5.6c1.3,5.9,3.3,16,5.9,34.3c0.5,3.6-2.9,3.3-2.9,3.3
	l-19.5-0.7c0,0-2.6,0-2.6-2.6s0-7.9,0-7.9s0.3-1.3-2.3-1.6c-2.6-0.3-47.5-5.6-47.5-5.6L4,60.5c0,0-1.6,0.3-1.3-2
	C3,56.2,5.6,39.9,5.6,39.9S6.2,36.3,9.5,36.3z"/>
<g>
	<circle cx="239.1" cy="101.7" r="13.4"/>
	<circle class="st2" cx="239.1" cy="101.7" r="7.5"/>
	<circle class="st3" cx="239.1" cy="101.7" r="5.6"/>
	<circle class="st2" cx="239.1" cy="101.7" r="3.3"/>
	<circle class="st3" cx="239.1" cy="101.7" r="1.6"/>
	<circle cx="239.1" cy="95.1" r="0.7"/>
	<circle cx="239.1" cy="108.2" r="0.7"/>
	<circle cx="245.7" cy="101.7" r="0.7"/>
	<circle cx="232.6" cy="101.7" r="0.7"/>
	<circle cx="243.7" cy="97.1" r="0.7"/>
	<circle cx="234.6" cy="106.3" r="0.7"/>
	<circle cx="234.6" cy="97.1" r="0.7"/>
	<circle cx="243.7" cy="106.3" r="0.7"/>
	<circle class="st4" cx="240.9" cy="97.6" r="0.5"/>
	<circle class="st5" cx="243.2" cy="99.9" r="0.5"/>
	<circle class="st4" cx="237.3" cy="97.6" r="0.5"/>
	<circle class="st4" cx="235" cy="99.9" r="0.5"/>
	<circle class="st4" cx="235" cy="103.5" r="0.5"/>
	<circle class="st4" cx="237.3" cy="105.8" r="0.5"/>
	<circle class="st4" cx="240.9" cy="105.8" r="0.5"/>
	<circle class="st4" cx="243.2" cy="103.5" r="0.5"/>
</g>
<g>
	<circle cx="77.9" cy="101.7" r="13.4"/>
	<circle class="st2" cx="77.9" cy="101.7" r="7.5"/>
	<circle class="st3" cx="77.9" cy="101.7" r="5.6"/>
	<circle class="st2" cx="77.9" cy="101.7" r="3.3"/>
	<circle class="st3" cx="77.9" cy="101.7" r="1.6"/>
	<circle cx="77.9" cy="95.1" r="0.7"/>
	<circle cx="77.9" cy="108.2" r="0.7"/>
	<circle cx="84.4" cy="101.7" r="0.7"/>
	<circle cx="71.3" cy="101.7" r="0.7"/>
	<circle cx="82.4" cy="97.1" r="0.7"/>
	<circle cx="73.3" cy="106.3" r="0.7"/>
	<circle cx="73.3" cy="97.1" r="0.7"/>
	<circle cx="82.4" cy="106.3" r="0.7"/>
	<circle class="st4" cx="79.7" cy="97.6" r="0.5"/>
	<circle class="st5" cx="81.9" cy="99.9" r="0.5"/>
	<circle class="st4" cx="76.1" cy="97.6" r="0.5"/>
	<circle class="st4" cx="73.8" cy="99.9" r="0.5"/>
	<circle class="st4" cx="73.8" cy="103.5" r="0.5"/>
	<circle class="st4" cx="76.1" cy="105.8" r="0.5"/>
	<circle class="st4" cx="79.7" cy="105.8" r="0.5"/>
	<circle class="st4" cx="81.9" cy="103.5" r="0.5"/>
</g>
</svg>
