<?xml version="1.0" encoding="utf-8"?>
<!-- Generator: Adobe Illustrator 23.0.1, SVG Export Plug-In . SVG Version: 6.00 Build 0)  -->
<svg version="1.1" id="Layer_1" xmlns="http://www.w3.org/2000/svg" xmlns:xlink="http://www.w3.org/1999/xlink" x="0px" y="0px"
	 viewBox="0 0 300 147" style="enable-background:new 0 0 300 147;" xml:space="preserve">
<style type="text/css">
	.st0{fill:#DBDBDB;}
	.st1{fill:#5C5C5C;}
	.st2{enable-background:new    ;}
	.st3{fill:#7C7C7C;}
	.st4{fill:#ADADAD;}
</style>
<path class="st0" d="M35.4,31.5c2.4,0,173,0,182.9,0s36.7,2.1,42.8,6.2s17.7,32.9,19.4,46.1c1.7,13.2-1.2,19.7-1.2,19.7
	s-2.9,2.9-12,2.9c0,0,2.1-18.1-14.8-18.1c-16.9,0-15.6,19.4-15.6,19.4H111.2c0,0,0.8-19.4-16.9-19.4s-16.1,18.5-16.1,18.5
	s-49-2-52.3-2.4c-3.3-0.4-7.4-4.1-7-12.8s0.3-30.9,6.6-53.2C28.9,30.7,33,31.5,35.4,31.5z"/>
<path class="st1" d="M29.2,41.8c-2.4,6.6-4.5,25.9-4.5,25.9H229l-2.1-25.2L29.2,41.8z"/>
<path class="st2" d="M95.6,42.2"/>
<path class="st1" d="M238,42.7l2.4,25.2h32.6c0,0-8.4-21.4-8.6-22.3c-0.4-1.2-2.1-2.9-4.1-2.9C257,42.7,238,42.7,238,42.7z"/>
<g>
	<ellipse transform="matrix(0.1602 -0.9871 0.9871 0.1602 110.0766 335.9166)" cx="252.4" cy="103.3" rx="13.3" ry="13.3"/>
	<circle class="st3" cx="252.4" cy="103.3" r="7.9"/>
	<circle class="st4" cx="252.4" cy="103.3" r="1.3"/>
	<circle cx="252.4" cy="98.6" r="1.6"/>
	<circle cx="257.2" cy="103.3" r="1.3"/>
	<circle cx="247.6" cy="103.3" r="1.6"/>
	<circle cx="252.4" cy="108.1" r="1.6"/>
</g>
<g>
	<circle cx="94.3" cy="103.3" r="13.3"/>
	<circle class="st3" cx="94.3" cy="103.3" r="7.9"/>
	<circle class="st4" cx="94.3" cy="103.3" r="1.3"/>
	<circle cx="94.3" cy="98.6" r="1.6"/>
	<circle cx="99" cy="103.3" r="1.3"/>
	<circle cx="89.5" cy="103.3" r="1.6"/>
	<circle cx="94.3" cy="108.1" r="1.6"/>
</g>
</svg>
