<?xml version="1.0" encoding="utf-8"?>
<!-- Generator: Adobe Illustrator 23.0.1, SVG Export Plug-In . SVG Version: 6.00 Build 0)  -->
<svg version="1.1" id="Layer_1" xmlns="http://www.w3.org/2000/svg" xmlns:xlink="http://www.w3.org/1999/xlink" x="0px" y="0px"
	 viewBox="0 0 300 147" style="enable-background:new 0 0 300 147;" xml:space="preserve">
<style type="text/css">
	.st0{fill:#DBDBDB;}
	.st1{fill:#5C5C5C;}
	.st2{fill:#7C7C7C;}
	.st3{fill:#ADADAD;}
</style>
<g>
	<path class="st0" d="M74.5,33.8c0,0,99.1,0,100.5,0c1.4,0,7.6,0.5,15,3.7c7.4,3.2,15.4,7.1,15.4,7.1s5.6,2.7,10.8,7.1
		c5.1,4.4,14.7,13,14.7,13s3.2,2.5,3.7,7.6c0.5,5.1,0.7,8.6,0.7,8.6s2.2-0.2,3.2,1.4c1,1.7,0,13,0,13s-0.5,3.7-3.9,3.9
		c-3.4,0.2-15.4,1.7-15.4,1.7s1-16.4-15.4-16.4s-14.5,16.9-14.5,16.9h-80.2c0,0,0.5-16.7-15-16.7s-14.2,17.4-14.2,17.4l-18.6-1.4
		c0,0-2.7-0.5-3-3.7c-0.2-3.2,0-3.4,0-3.4l0.5-0.2c0,0-1.4-19.6-0.5-26.7s2.5-18.6,9.4-29.7C70.1,33.6,74.5,33.8,74.5,33.8z"/>
	<path class="st1" d="M67.3,47c2.2,0,107.6,0,108.1,0c0.5,0,1.7,0,1.2,1.7c-0.5,2.2-4.2,13.8-4.4,14.2c-0.2,0.5-1.7,3.7-7.6,3.7
		c-5.9,0-101.5,0.5-101.5,0.5s-2,0-1.7-2.2c0.5-5.1,2.7-15,3-15.7C64.6,48.5,65,47,67.3,47z"/>
	<path class="st1" d="M187.3,47l15.2,0.2c0,0,3,0,5.6,1.7c2.7,1.7,14,10.3,15.9,13.5c2,3.2,1,3.2,0,3.2s-32.6-3-32.6-3
		s-1.2,0-1.7-1.2c-0.5-1.4-3.7-13.2-3.7-13.2S185.6,47,187.3,47z"/>
	<path d="M178.5,49"/>
	<g>
		<circle cx="203.9" cy="98.9" r="12.9"/>
		<circle class="st2" cx="203.9" cy="98.9" r="7.7"/>
		<circle class="st3" cx="203.9" cy="98.9" r="1.3"/>
		<circle cx="203.9" cy="94.3" r="1.6"/>
		<circle cx="208.5" cy="98.9" r="1.3"/>
		<circle cx="199.2" cy="98.9" r="1.6"/>
		<circle cx="203.9" cy="103.5" r="1.6"/>
	</g>
	<circle cx="94.2" cy="98.9" r="12.9"/>
	<circle class="st2" cx="94.2" cy="98.9" r="7.7"/>
	<circle class="st3" cx="94.2" cy="98.9" r="1.3"/>
	<circle cx="94.2" cy="94.3" r="1.6"/>
	<circle cx="98.9" cy="98.9" r="1.3"/>
	<circle cx="89.6" cy="98.9" r="1.6"/>
	<circle cx="94.2" cy="103.5" r="1.6"/>
</g>
</svg>
